<svg version="1.1" id="Layer_1" xmlns="http://www.w3.org/2000/svg" xmlns:xlink="http://www.w3.org/1999/xlink" x="0px" y="0px"
	 width="100%" viewBox="0 0 2048 2048" enable-background="new 0 0 2048 2048" xml:space="preserve">
<path fill="#000000" opacity="1.000000" stroke="none" 
	d="
M1.453671,2048.213867 
	C1.000000,1366.312378 1.000000,684.624878 1.000000,2.468657 
	C2.732545,1.082769 4.602385,1.537985 6.400986,1.537924 
	C685.293701,1.515168 1364.186401,1.515574 2043.079102,1.516546 
	C2044.412109,1.516548 2045.745361,1.492946 2047.555786,1.700537 
	C2048.882812,3.595485 2048.464111,5.460117 2048.464111,7.264018 
	C2048.484863,685.869019 2048.484375,1364.473999 2048.483398,2043.078979 
	C2048.483398,2044.411987 2048.507080,2045.745483 2048.299561,2047.555908 
	C2046.404541,2048.882812 2044.539917,2048.463867 2042.735962,2048.463867 
	C1363.962402,2048.484863 685.188904,2048.484375 6.415363,2048.482422 
	C4.912639,2048.482422 3.409044,2048.524414 1.453671,2048.213867 
z"/>
<path fill="#FFFFFF" opacity="1.000000" stroke="none" 
	d="
M1.000000,2048.500000 
	C3.163350,2047.952026 5.326701,2047.862305 7.490053,2047.862183 
	C687.307312,2047.855225 1367.124512,2047.854248 2047.374023,2047.799316 
	C2048.020020,2047.719238 2048.233398,2047.693115 2048.723633,2047.833496 
	C2048.781982,2048.307617 2049.505859,2049.042725 2048.499756,2049.010254 
	C2047.167603,2048.967773 2045.833374,2049.000000 2044.500000,2049.000000 
	C1363.333374,2049.000000 682.166687,2049.000000 1.000000,2048.500000 
z"/>
<path fill="#434343" opacity="1.000000" stroke="none" 
	d="
M2048.034668,1.839210 
	C2045.207153,2.065639 2042.542358,2.003865 2039.877686,2.003849 
	C1360.550171,1.999670 681.222717,1.999789 1.447632,1.999898 
	C1.217903,1.692318 0.494547,0.957410 1.500045,0.989522 
	C2.831763,1.032054 4.165862,1.000000 5.498938,1.000000 
	C686.034180,1.000000 1366.569458,1.000000 2047.552368,1.000000 
	C2048.065918,1.193283 2048.131836,1.386566 2048.034668,1.839210 
z"/>
<path fill="#848484" opacity="1.000000" stroke="none" 
	d="
M2047.931885,2.530159 
	C2047.898438,1.916103 2047.925171,1.733636 2047.976074,1.275584 
	C2048.307617,1.217865 2049.042480,0.494634 2049.010498,1.500042 
	C2048.968018,2.831762 2049.000000,4.165862 2049.000000,5.498938 
	C2049.000000,686.034180 2049.000000,1366.569458 2049.000000,2047.552368 
	C2048.797607,2047.973755 2048.595459,2047.947632 2048.099609,2047.833496 
	C2047.870728,2046.249390 2047.992065,2044.753174 2047.992065,2043.257080 
	C2047.997681,1363.158691 2047.994629,683.060181 2047.931885,2.530159 
z"/>
<path fill="#FFFFFF" opacity="1.000000" stroke="none" 
	d="
M1656.564453,665.584229 
	C1614.559570,723.351440 1648.166260,801.344910 1718.351440,809.687866 
	C1731.802124,811.286743 1744.981812,809.683350 1757.704224,805.041443 
	C1761.066772,803.814636 1762.509277,803.275146 1763.411011,807.944763 
	C1769.997681,842.054016 1776.927979,876.097900 1783.946411,910.121887 
	C1784.742065,913.979309 1783.942871,914.881653 1780.089600,915.069580 
	C1741.769287,916.937927 1708.849365,943.071716 1698.195801,979.825867 
	C1697.303223,982.905151 1697.104004,985.950989 1697.472412,989.159302 
	C1698.654785,999.452576 1698.651733,1009.781006 1697.492676,1020.073303 
	C1697.091797,1023.633484 1697.416260,1026.968384 1698.442139,1030.372803 
	C1709.272583,1066.313354 1740.669189,1091.507812 1778.297241,1094.381226 
	C1784.808105,1094.878540 1784.839111,1094.884766 1783.721680,1100.460815 
	C1776.923828,1134.386230 1770.056396,1168.298096 1763.388672,1202.249023 
	C1762.743042,1205.536011 1762.092407,1206.132568 1758.791870,1204.957031 
	C1703.262329,1185.179321 1645.230957,1221.209106 1638.255249,1279.678467 
	C1633.856567,1316.547852 1654.583252,1353.843872 1688.733398,1370.059326 
	C1692.560303,1371.876343 1693.613403,1372.806763 1690.842041,1376.884766 
	C1671.463501,1405.398438 1652.317505,1434.071655 1633.332031,1462.848877 
	C1630.882080,1466.562500 1629.708984,1466.377808 1626.543701,1463.678711 
	C1599.289185,1440.438354 1568.318970,1433.977661 1534.837646,1446.681763 
	C1501.349243,1459.388550 1481.989990,1484.808228 1477.404297,1520.236938 
	C1473.960571,1546.842651 1482.066650,1570.606445 1500.085083,1590.670776 
	C1502.552490,1593.418335 1502.939209,1594.543457 1499.507446,1596.807007 
	C1470.175293,1616.154053 1440.959595,1635.677734 1411.777100,1655.250244 
	C1409.295044,1656.915161 1408.404907,1657.175781 1406.906616,1654.018188 
	C1389.864502,1618.102661 1352.442993,1597.232422 1314.447266,1602.215454 
	C1274.796631,1607.415527 1243.884766,1636.911255 1236.627808,1676.622070 
	C1233.777954,1692.215698 1235.338501,1707.494019 1240.885132,1722.309082 
	C1242.037109,1725.385986 1241.826172,1726.366089 1238.279541,1727.054810 
	C1203.938843,1733.724121 1169.630005,1740.560425 1135.348389,1747.527588 
	C1131.663086,1748.276489 1130.737915,1747.907715 1130.498291,1743.804932 
	C1127.659668,1695.209595 1088.509155,1658.168701 1040.322998,1658.200928 
	C993.028015,1658.232544 953.170776,1696.215942 950.919739,1743.602905 
	C950.744629,1747.289673 950.355713,1748.419312 946.234863,1747.577148 
	C911.964783,1740.573364 877.650208,1733.785645 843.322021,1727.070679 
	C840.175293,1726.455078 839.176880,1725.867432 840.463379,1722.413452 
	C859.660278,1670.872803 827.767578,1611.219604 767.561218,1602.276733 
	C730.509460,1596.773193 691.159241,1618.148926 674.981628,1653.041382 
	C673.210327,1656.861694 672.060364,1656.868530 668.841064,1654.703125 
	C640.090332,1635.363892 611.258972,1616.143799 582.353821,1597.036377 
	C579.124817,1594.901855 578.653076,1593.802979 581.427185,1590.597412 
	C604.963257,1563.399536 611.231384,1532.298584 598.692993,1498.777222 
	C586.280090,1465.591187 561.088501,1446.320679 526.120850,1441.370850 
	C498.746216,1437.495850 474.463684,1445.906616 453.903442,1464.467285 
	C451.584625,1466.560547 450.736053,1466.795410 448.883179,1464.003296 
	C429.266754,1434.443237 409.559509,1404.942871 389.703461,1375.543457 
	C387.617584,1372.455078 388.954590,1371.997070 391.393463,1370.787109 
	C424.956757,1354.136475 442.963898,1326.723389 443.426086,1289.580200 
	C443.957428,1246.876953 415.086517,1212.393188 375.997650,1202.210327 
	C358.075500,1197.541626 340.331848,1198.330444 322.995331,1204.874512 
	C319.303406,1206.268188 318.714905,1205.158691 318.063354,1201.821289 
	C311.520294,1168.306030 304.808777,1134.823730 298.137207,1101.333618 
	C296.852448,1094.884521 296.843689,1094.956543 303.416168,1094.349976 
	C336.283325,1091.317749 360.923370,1075.401367 376.561462,1046.387085 
	C407.265320,989.420227 366.877350,918.213074 302.205688,915.110229 
	C297.555817,914.887146 296.945190,913.739441 297.835541,909.387756 
	C304.779755,875.446899 311.502380,841.460327 318.149658,807.459778 
	C318.795532,804.155945 319.597046,803.546204 322.926605,804.724060 
	C377.602844,824.066833 434.766693,789.299988 442.842804,731.912842 
	C448.152374,694.183777 427.878906,656.542480 392.677704,639.519897 
	C388.117615,637.314697 388.438171,635.910217 390.899445,632.266235 
	C410.100159,603.838684 429.164368,575.317993 448.071533,546.694458 
	C450.448486,543.095947 451.579773,543.097290 454.829987,545.877014 
	C482.725891,569.734619 514.409546,576.082153 548.377625,562.239563 
	C582.273865,548.426208 601.213867,522.027771 604.322266,485.369843 
	C606.468811,460.054504 598.379395,437.691956 581.318604,418.817505 
	C578.594482,415.803772 578.997070,414.828552 582.142517,412.745453 
	C611.164551,393.525024 640.111084,374.189362 668.956543,354.705261 
	C672.201355,352.513519 673.192200,352.829529 674.882141,356.327148 
	C692.442749,392.670471 729.273865,412.288696 769.381348,406.897095 
	C807.038940,401.834839 837.715759,371.840118 844.777222,332.918030 
	C847.601746,317.349731 845.978088,302.072693 840.540161,287.225281 
	C839.655579,284.810211 838.905823,283.408752 842.675354,282.673737 
	C877.621521,275.859528 912.529724,268.847656 947.409485,261.700745 
	C950.998352,260.965424 950.724426,262.556000 950.846741,264.973236 
	C953.045837,308.409180 983.894287,342.967682 1026.929443,350.289093 
	C1073.661987,358.239502 1120.736572,325.218323 1129.009277,278.614655 
	C1129.792603,274.202118 1130.434082,269.712952 1130.528076,265.246399 
	C1130.598633,261.901550 1131.133179,261.100708 1134.726196,261.836761 
	C1167.324463,268.514465 1199.972656,274.948883 1232.600952,281.480042 
	C1235.672607,282.094879 1238.708984,282.885101 1241.761719,283.593872 
	C1240.887329,286.422546 1239.981812,289.241974 1239.143311,292.081268 
	C1225.744141,337.451904 1249.184937,384.956696 1293.374146,402.000946 
	C1336.706299,418.714630 1385.658203,399.338013 1406.067261,357.115967 
	C1408.269043,352.560944 1409.778809,352.889618 1413.401245,355.330475 
	C1441.857788,374.504761 1470.390625,393.567261 1499.045776,412.442993 
	C1502.747070,414.881042 1502.606201,416.061249 1499.791992,419.182007 
	C1475.005371,446.668304 1469.705200,486.275513 1486.158936,519.185913 
	C1502.714600,552.299988 1537.954712,572.129517 1574.835693,568.735718 
	C1594.489014,566.927063 1611.906738,559.436890 1626.438354,546.009827 
	C1630.065063,542.658813 1631.182739,543.585876 1633.509644,547.100220 
	C1652.268921,575.431213 1671.225830,603.631409 1690.118408,631.874207 
	C1693.549072,637.002502 1693.551514,637.029968 1688.242188,639.627502 
	C1675.753906,645.737244 1665.257446,654.276550 1656.564453,665.584229 
z"/>
<path fill="#010101" opacity="1.000000" stroke="none" 
	d="
M682.173523,1283.000000 
	C682.173462,1095.014526 681.955078,907.528564 682.342163,720.043823 
	C682.428162,678.398865 694.021606,640.187317 722.925232,608.668518 
	C740.099854,589.940002 761.306702,577.934021 785.739929,571.620361 
	C821.267151,562.439758 857.052063,562.052246 892.459045,571.494202 
	C945.680420,585.686768 976.523499,622.062561 990.638123,673.988159 
	C995.209045,690.803528 996.684570,708.090088 996.720642,725.468689 
	C996.807739,767.465271 996.671082,809.462524 996.862671,851.458435 
	C996.883240,855.967834 995.649963,856.928772 991.307068,856.906250 
	C955.477478,856.721130 919.646179,856.731689 883.816345,856.897583 
	C879.731018,856.916504 878.524902,855.955688 878.540955,851.745850 
	C878.700500,809.916382 878.655640,768.085999 878.623291,726.255920 
	C878.617065,718.203857 877.454529,710.297485 874.543457,702.755554 
	C868.283386,686.536987 856.159973,678.827209 837.459106,679.009583 
	C821.781067,679.162476 809.604614,688.084595 804.025146,703.628052 
	C801.475281,710.731567 800.167847,718.115234 800.166504,725.647095 
	C800.133301,915.465759 800.139709,1105.284424 800.144165,1295.103149 
	C800.144287,1301.325928 801.516113,1307.274048 803.415161,1313.191406 
	C806.569946,1323.021851 813.429871,1328.205811 823.310486,1329.694092 
	C831.261902,1330.891724 839.233154,1330.990967 847.117249,1329.003906 
	C863.540771,1324.864624 873.386169,1312.848511 873.431030,1295.890259 
	C873.571716,1242.728027 873.448608,1189.565186 873.563904,1136.402832 
	C873.571472,1132.919067 872.358398,1132.171143 869.232300,1132.270508 
	C863.238770,1132.460815 857.230469,1132.188965 851.237366,1132.386108 
	C848.276611,1132.483521 847.176453,1131.736694 847.187622,1128.530029 
	C847.300049,1096.199585 847.289185,1063.868408 847.198242,1031.537842 
	C847.190125,1028.632446 848.152222,1027.888550 850.937561,1027.892944 
	C896.433899,1027.964844 941.930664,1027.998413 987.426636,1027.852417 
	C991.586609,1027.839111 991.410522,1029.913208 991.406189,1032.789062 
	C991.357910,1064.786621 991.374451,1096.784058 991.374268,1128.781616 
	C991.373962,1183.777344 991.446045,1238.773193 991.335266,1293.768677 
	C991.296875,1312.828857 989.159668,1331.683472 983.693726,1350.014648 
	C970.844299,1393.107300 943.034668,1422.328979 900.216187,1435.563354 
	C854.930237,1449.560425 809.151611,1448.125854 764.195557,1433.397339 
	C724.721008,1420.464600 701.429016,1391.824707 690.110474,1352.669800 
	C683.578857,1330.074707 681.796448,1306.903687 682.173523,1283.000000 
z"/>
<path fill="#010101" opacity="1.000000" stroke="none" 
	d="
M1039.977051,1327.053955 
	C1046.732666,1275.740601 1053.440186,1224.869263 1060.173706,1174.001343 
	C1066.007690,1129.928833 1071.887573,1085.862305 1077.717407,1041.789307 
	C1083.173950,1000.537781 1088.584717,959.280334 1094.027344,918.026978 
	C1101.566650,860.883118 1109.122192,803.741394 1116.660645,746.597351 
	C1122.497070,702.355591 1128.315063,658.111450 1134.147827,613.869202 
	C1135.844604,600.998474 1137.659302,588.142212 1139.212280,575.254272 
	C1139.658081,571.554443 1140.703613,570.071106 1144.943848,570.090332 
	C1189.442017,570.292175 1233.941772,570.270325 1278.440308,570.122070 
	C1282.512573,570.108521 1284.111450,570.905823 1284.680420,575.329895 
	C1291.030884,624.715027 1297.619507,674.069580 1304.186035,723.426758 
	C1317.054688,820.154419 1329.965454,916.876587 1342.828613,1013.604980 
	C1350.291382,1069.723877 1357.670288,1125.854004 1365.131836,1181.973145 
	C1376.303833,1265.997803 1387.484253,1350.021606 1398.803833,1434.026489 
	C1399.361206,1438.163208 1398.798340,1439.297852 1394.348633,1439.275269 
	C1356.350342,1439.082275 1318.350342,1439.089355 1280.351929,1439.271851 
	C1276.162354,1439.291992 1275.230469,1437.913818 1274.746338,1434.045532 
	C1268.027832,1380.347412 1261.116333,1326.673340 1254.256958,1272.992798 
	C1252.505859,1259.289185 1250.660645,1245.595825 1249.120117,1231.868408 
	C1248.785278,1228.884888 1247.909424,1227.976929 1244.904419,1227.994019 
	C1223.572266,1228.115479 1202.238403,1228.125732 1180.906494,1227.985962 
	C1177.738525,1227.965210 1176.630371,1228.926025 1176.242065,1232.048584 
	C1170.876953,1275.196899 1165.388184,1318.330078 1159.942749,1361.468506 
	C1156.856201,1385.921021 1153.747559,1410.370850 1150.777344,1434.837524 
	C1150.391235,1438.018311 1149.471802,1439.267944 1145.942017,1439.254883 
	C1107.109985,1439.112061 1068.277100,1439.121704 1029.444824,1439.239502 
	C1025.936157,1439.250122 1025.163696,1438.677246 1025.678711,1434.921997 
	C1030.585815,1399.134766 1035.224487,1363.310791 1039.977051,1327.053955 
z"/>
<path fill="#FEFEFE" opacity="1.000000" stroke="none" 
	d="
M1147.692749,1055.772461 
	C1151.642334,1022.899780 1180.036255,997.908447 1212.882690,997.999268 
	C1245.769165,998.090271 1274.414917,1023.553162 1277.692871,1056.322998 
	C1280.567139,1085.056396 1269.563477,1107.556885 1244.730347,1122.398193 
	C1222.268555,1135.822266 1193.496826,1133.725586 1172.941772,1117.409912 
	C1153.331543,1101.844116 1144.981445,1081.200195 1147.692749,1055.772461 
z"/>
</svg>